<?xml version="1.0" encoding="UTF-8" standalone="no"?>
<svg
   xmlns:osb="http://www.openswatchbook.org/uri/2009/osb"
   xmlns:dc="http://purl.org/dc/elements/1.1/"
   xmlns:cc="http://creativecommons.org/ns#"
   xmlns:rdf="http://www.w3.org/1999/02/22-rdf-syntax-ns#"
   xmlns:svg="http://www.w3.org/2000/svg"
   xmlns="http://www.w3.org/2000/svg"
   xmlns:sodipodi="http://sodipodi.sourceforge.net/DTD/sodipodi-0.dtd"
   xmlns:inkscape="http://www.inkscape.org/namespaces/inkscape"
   width="200mm"
   height="200mm"
   viewBox="0 0 200 200"
   version="1.1"
   id="svg2998"
   inkscape:label="ogon"
   inkscape:version="1.0.2-2 (e86c870879, 2021-01-15)"
   sodipodi:docname="ryba.svg">
  <defs
     id="defs2992">
    <linearGradient
       id="linearGradient3934"
       osb:paint="solid">
      <stop
         style="stop-color:#d21f00;stop-opacity:1;"
         offset="0"
         id="stop3932" />
    </linearGradient>
  </defs>
  <sodipodi:namedview
     id="base"
     pagecolor="#ffffff"
     bordercolor="#666666"
     borderopacity="1.0"
     inkscape:pageopacity="0.0"
     inkscape:pageshadow="2"
     inkscape:zoom="0.98994949"
     inkscape:cx="302.05634"
     inkscape:cy="374.13353"
     inkscape:document-units="mm"
     inkscape:current-layer="layer3"
     inkscape:document-rotation="0"
     showgrid="false"
     inkscape:window-width="1920"
     inkscape:window-height="1009"
     inkscape:window-x="-8"
     inkscape:window-y="-8"
     inkscape:window-maximized="1" />
  <metadata
     id="metadata2995">
    <rdf:RDF>
      <cc:Work
         rdf:about="">
        <dc:format>image/svg+xml</dc:format>
        <dc:type
           rdf:resource="http://purl.org/dc/dcmitype/StillImage" />
        <dc:title></dc:title>
      </cc:Work>
    </rdf:RDF>
  </metadata>
  <g
     inkscape:label="Warstwa 1"
     inkscape:groupmode="layer"
     id="layer1"
     style="opacity:0.102881"
     sodipodi:insensitive="true" />
  <g
     inkscape:groupmode="layer"
     id="layer3"
     inkscape:label="Warstwa 2">
    <g
       id="g4095"
       transform="matrix(1.5235493,0,0,1.8921217,-45.537011,-150.1024)">
      <circle
         style="fill:#efbd89;fill-opacity:1;stroke:#000000;stroke-width:0.264999"
         id="path3988-1"
         cx="76.171814"
         cy="119.73675"
         r="4.543582" />
      <g
         id="g3986"
         transform="matrix(1.0110457,0,0,1,-1.5612081,0)">
        <path
           style="opacity:1;fill:#310e6c;fill-opacity:1;stroke:#000000;stroke-width:0.264999"
           d="m 90.136648,111.18412 c 0,0 24.669892,-7.90183 19.377042,-5.81311 -5.95225,2.34894 -6.87008,8.38262 -3.34087,7.95127 z"
           id="path3962"
           sodipodi:nodetypes="cscc" />
        <g
           id="g3123">
          <path
             style="opacity:0.992;fill:#fd5100;fill-opacity:1;stroke:#000000;stroke-width:0.264999"
             d="m 96.818385,138.57924 3.274055,0.0668 c 0,0 -1.069081,4.00904 0.93544,4.6104 2.00452,0.60136 5.14494,8.48581 5.21176,9.55489 0.0668,1.06907 0.86862,4.27631 -1.73725,6.81537 -2.60588,2.53906 -7.416736,-2.40543 -7.416736,-2.40543 0,0 -3.541321,-1.87088 -4.009041,-6.5481 -0.467722,-4.67722 3.741772,-12.09395 3.741772,-12.09395 z"
             id="path3078" />
          <g
             id="g3052"
             transform="translate(16.904797,-0.3340869)"
             style="fill:#310e6c;fill-opacity:1">
            <path
               style="opacity:0.992;fill:#310e6c;fill-opacity:1;stroke:#000000;stroke-width:0.264999"
               d="m 116.19543,129.35428 c 0,0 0,0.004 0,0 -5e-5,-0.66817 0.004,0.004 0.004,0.004 -1.85137,13.16031 3.93805,22.71791 3.93805,22.71791 0,0 2.07134,4.00904 4.07586,5.41221 2.00452,1.40316 -10.42351,-2.53906 -12.36121,-6.34766 -1.93771,-3.80858 -2.07134,-6.88218 -1.33635,-9.82215 0.73499,-2.93996 1.46998,-7.684 0.20045,-8.41899 -1.26953,-0.73499 3.0736,-0.4009 2.13816,-3.54132 l 0.15355,-0.27167"
               id="path3015"
               sodipodi:nodetypes="csccsssscc" />
            <path
               style="opacity:0.992;fill:#310e6c;fill-opacity:1;stroke:#000000;stroke-width:0.264999"
               d="m 116.1996,129.36228 v 0 c -5e-5,0.66817 -0.004,-0.008 -0.004,-0.008 -1.85137,-13.16031 3.94622,-22.71391 3.94622,-22.71391 0,0 2.07134,-4.00904 4.07586,-5.41221 2.00452,-1.40316 -10.42351,2.53906 -12.36121,6.34766 -1.93771,3.80858 -2.07134,6.88218 -1.33635,9.82215 0.73499,2.93996 1.46998,7.684 0.20045,8.41899 -1.26953,0.73499 3.06943,0.4009 2.13399,3.54132 v 0"
               id="path3015-0"
               sodipodi:nodetypes="ccccsssscc" />
          </g>
          <g
             id="g3074"
             transform="matrix(1,0,0,0.92722397,17.726356,8.8538361)">
            <path
               style="opacity:0.992;fill:#dc5aeb;fill-opacity:1;stroke:#000000;stroke-width:0.264999"
               d="m 112.72092,129.75935 c 0,0 0.13364,-3.94222 -4.54358,-4.54358 -4.67722,-0.60136 -10.423511,-9.08716 -11.024867,-9.35443 -0.601358,-0.26727 -8.418991,-6.28084 -12.361216,-6.54811 -3.942225,-0.26727 -9.488068,-0.13363 -12.828938,1.26954 -3.340868,1.40316 2.141821,-2.83343 9.287615,5.47902 6.548106,7.61718 5.011306,13.83119 5.144939,13.83119"
               id="path3068"
               sodipodi:nodetypes="csssssc" />
            <path
               style="opacity:0.992;fill:#dc5aeb;fill-opacity:1;stroke:#000000;stroke-width:0.264999"
               d="m 112.72092,129.52549 c 0,0 0.13364,4.44334 -4.54358,5.0447 -4.67722,0.60136 -10.423511,9.08716 -11.024867,9.35443 -0.601358,0.26727 -8.418991,6.28084 -12.361216,6.54811 -3.942225,0.26727 -9.488068,0.13363 -12.828938,-1.26954 -3.340868,-1.40316 2.141821,2.83343 9.287615,-5.47902 6.548106,-7.61718 4.977897,-13.99823 5.11153,-13.99823"
               id="path3070"
               sodipodi:nodetypes="csssssc" />
          </g>
          <path
             style="opacity:1;fill:#d21f00;fill-opacity:1;stroke:#000000;stroke-width:0.264999"
             d="m 101.36197,141.98693 3.27405,0.0668 c 0,0 -1.06908,4.00904 0.93544,4.6104 2.00453,0.60136 5.14494,8.48581 5.21176,9.55489 0.0668,1.06907 0.86862,4.27631 -1.73725,6.81537 -2.60588,2.53906 -7.41673,-2.40543 -7.41673,-2.40543 0,0 -3.541325,-1.87088 -4.009045,-6.5481 -0.467722,-4.67722 3.741775,-12.09395 3.741775,-12.09395 z"
             id="path3076" />
          <path
             style="opacity:0.992;fill:#6451cd;fill-opacity:1;stroke:#000000;stroke-width:0.268914"
             d="m 91.142828,111.31972 c 0,0 15.719332,5.47242 14.358352,18.917 -1.36098,13.44458 -14.494451,17.16042 -14.494451,17.16042 0,0 -21.775701,-3.24291 -22.115945,-15.06603 -0.340245,-11.82313 13.813961,-20.67359 22.252044,-21.01139 z"
             id="path3104" />
        </g>
      </g>
      <circle
         style="opacity:1;fill:#efbd89;fill-opacity:1;stroke:#000000;stroke-width:0.264999"
         id="path3988"
         cx="78.57724"
         cy="118.60085"
         r="4.543582" />
      <circle
         style="opacity:1;fill:#21bd89;fill-opacity:1;stroke:#000000;stroke-width:0.264999"
         id="path4011"
         cx="78.844505"
         cy="120.00402"
         r="1.6036172" />
      <path
         style="opacity:1;fill:none;fill-opacity:1;stroke:#000000;stroke-width:0.264999"
         d="m 71.260736,139.21401 c 0,0 15.106822,0.2592 12.272002,-5.31595"
         id="path4013" />
      <circle
         style="opacity:1;fill:#47bd89;fill-opacity:1;stroke:#000000;stroke-width:0.235174"
         id="path4015"
         cx="52.618683"
         cy="119.16879"
         r="2.2532947" />
      <circle
         style="fill:#7dbd35;fill-opacity:1;stroke:#000000;stroke-width:0.264999"
         id="path4015-7"
         cx="52.25119"
         cy="108.37779"
         r="2.5390604" />
      <circle
         style="fill:#7d3989;fill-opacity:1;stroke:#000000;stroke-width:0.30808"
         id="path4015-0"
         cx="60.169052"
         cy="114.2243"
         r="2.951833" />
      <circle
         style="fill:#7dbd89;fill-opacity:1;stroke:#000000;stroke-width:0.132443"
         id="path4015-02"
         cx="63.209232"
         cy="131.8307"
         r="1.2689906" />
      <circle
         style="fill:#ccbd89;fill-opacity:1;stroke:#000000;stroke-width:0.205349"
         id="path4015-5"
         cx="60.937447"
         cy="105.50464"
         r="1.9675289" />
      <circle
         style="fill:#7df789;fill-opacity:1;stroke:#000000;stroke-width:0.264999"
         id="path4015-8"
         cx="60.46973"
         cy="124.07988"
         r="2.5390604" />
    </g>
  </g>
</svg>
